# xmcd CD database file generated by LOLA_Freedb v0.9beta0
#
# Track frame offsets:
#      150
#      14485
#      25832
#      57325
#      63297
#      83902
#      106810
#      129520
#      151115
#      158375
#      175032
#      189650
#      204410
#
# Disc length: 2763 seconds
#
# Revision: 4
# Processed by: cddbd v1.5.2PL0 Copyright (c) Steve Scherf et al.
# Submitted via: LOLA_Freedb v0.9beta0
#
DISCID=980ac90d,a00ac90d
DTITLE=Emil Steinberger - Feuerabend
DYEAR=1987
DGENRE=Cabaret
TTITLE0=Emil Steinberger - Sicherheitsvorschriften
TTITLE1=Der Taschenrechner
TTITLE2=Der Sprinkler
TTITLE3=Die Hausaufgaben
TTITLE4=Beim Bankmann
TTITLE5=Der Waschküchenschlüssel
TTITLE6=Der Parkplatz
TTITLE7=Der Glückwunsch
TTITLE8=Das Bremslicht
TTITLE9=Im Kalorienrestaurant
TTITLE10=Der Intendant
TTITLE11=Die Mengenlehre
TTITLE12=Die Bremskorrektur
EXTD=YEAR: 1987
EXTT0=
EXTT1=
EXTT2=
EXTT3=
EXTT4=
EXTT5=
EXTT6=
EXTT7=
EXTT8=
EXTT9=
EXTT10=
EXTT11=
EXTT12=
PLAYORDER=
